<svg id="ebiLQWjB7y81" xmlns="http://www.w3.org/2000/svg" xmlns:xlink="http://www.w3.org/1999/xlink" viewBox="0 0 60 60" shape-rendering="geometricPrecision" text-rendering="geometricPrecision"><g transform="matrix(1.453695 0 0 1.453695 4.096825 5.792778)"><g transform="translate(.000001 0.000001)"><path d="M17.3043,32.3044c-8.69567,0-15.6522-6.9565-15.6522-15.6522s6.95653-15.6522,15.6522-15.6522c6.3768,0,11.942,3.82609,14.3768,9.3913" fill="none" stroke="#10385b" stroke-width="2" stroke-linecap="round" stroke-linejoin="round" stroke-miterlimit="10"/><path d="M17.3041,32.3044c-4.4058-3.1304-7.30434-9.0435-7.30434-15.6522s2.89854-12.52176,7.30434-15.6522" fill="none" stroke="#fff" stroke-width="2" stroke-linecap="round" stroke-linejoin="round" stroke-miterlimit="10"/><path d="M17.3042,1c6.3768,0,11.942,3.82609,14.3768,9.3913" fill="none" stroke="#fff" stroke-width="2" stroke-linecap="round" stroke-linejoin="round" stroke-miterlimit="10"/><path d="M17.3043,32.3044c-8.69567,0-15.6522-6.9565-15.6522-15.6522s6.95653-15.6522,15.6522-15.6522c2.8986,2.08696,5.2174,5.44928,6.3768,9.3913" fill="none" stroke="#fff" stroke-width="2" stroke-linecap="round" stroke-linejoin="round" stroke-miterlimit="10"/><path d="M3.27539,23.4932h3.82609h6.02902h3.942" fill="none" stroke="#fff" stroke-width="2" stroke-linecap="round" stroke-linejoin="round" stroke-miterlimit="10"/><path d="M23.6812,10.3906h8" fill="none" stroke="#fff" stroke-width="2" stroke-linecap="round" stroke-linejoin="round" stroke-miterlimit="10"/><path d="M2.92749,10.3906h8.00001h12.7536" fill="none" stroke="#fff" stroke-width="2" stroke-linecap="round" stroke-linejoin="round" stroke-miterlimit="10" stroke-dasharray="0"/></g><g transform="translate(-2 0.000001)"><path d="M23.7971,31.547094v-17.096894" fill="none" stroke="#2b98f7" stroke-width="2" stroke-linecap="round" stroke-linejoin="round" stroke-miterlimit="10" stroke-dasharray="150"/><path d="M20.3188,18.0444l3.4783-3.5942l3.8261,3.7101" fill="none" stroke="#2b98f7" stroke-width="2" stroke-linecap="round" stroke-linejoin="round" stroke-miterlimit="10" stroke-dasharray="120"/></g><g transform="matrix(1 0 0-1 6.3624 45.997295)"><path d="M23.7971,31.547094v-17.096894" fill="none" stroke="#2b98f7" stroke-width="2" stroke-linecap="round" stroke-linejoin="round" stroke-miterlimit="10" stroke-dasharray="150"/><path d="M20.3188,18.0444l3.4783-3.5942l3.8261,3.7101" fill="none" stroke="#2b98f7" stroke-width="2" stroke-linecap="round" stroke-linejoin="round" stroke-miterlimit="10" stroke-dasharray="120"/></g></g></svg>