<svg id="etuBiTW4mKo1" xmlns="http://www.w3.org/2000/svg" xmlns:xlink="http://www.w3.org/1999/xlink" viewBox="0 0 60 60" shape-rendering="geometricPrecision" text-rendering="geometricPrecision"><style><![CDATA[#etuBiTW4mKo4 {animation: etuBiTW4mKo4_s_do 3000ms linear infinite normal forwards}@keyframes etuBiTW4mKo4_s_do { 0% {stroke-dashoffset: 120;animation-timing-function: cubic-bezier(0.42,0,0.58,1)} 70% {stroke-dashoffset: 0} 100% {stroke-dashoffset: 0}} #etuBiTW4mKo5 {animation: etuBiTW4mKo5_s_do 3000ms linear infinite normal forwards}@keyframes etuBiTW4mKo5_s_do { 0% {stroke-dashoffset: 150;animation-timing-function: cubic-bezier(0.42,0,0.58,1)} 70% {stroke-dashoffset: 0} 100% {stroke-dashoffset: 0}} #etuBiTW4mKo6_tr {animation: etuBiTW4mKo6_tr__tr 3000ms linear infinite normal forwards}@keyframes etuBiTW4mKo6_tr__tr { 0% {transform: translate(39.248377px,25.822402px) rotate(0deg)} 20% {transform: translate(39.248377px,25.822402px) rotate(0deg)} 30% {transform: translate(39.248377px,25.822402px) rotate(-3.452276deg)} 40% {transform: translate(39.248377px,25.822402px) rotate(0deg)} 100% {transform: translate(39.248377px,25.822402px) rotate(0deg)}} #etuBiTW4mKo9_tr {animation: etuBiTW4mKo9_tr__tr 3000ms linear infinite normal forwards}@keyframes etuBiTW4mKo9_tr__tr { 0% {transform: translate(15.822467px,25.822401px) rotate(0deg)} 20% {transform: translate(15.822467px,25.822401px) rotate(0deg);animation-timing-function: cubic-bezier(0.42,0,0.58,1)} 30% {transform: translate(15.822467px,25.822401px) rotate(4.446843deg);animation-timing-function: cubic-bezier(0.42,0,0.58,1)} 40% {transform: translate(15.822467px,25.822401px) rotate(0deg)} 100% {transform: translate(15.822467px,25.822401px) rotate(0deg)}}]]></style><g transform="matrix(1.038322 0 0 1.038322 1.49309 14.190769)"><g><path id="etuBiTW4mKo4" d="M27.2744,12.9032c3.2869,0,5.9516-2.6646,5.9516-5.95159s-2.6647-5.95161-5.9516-5.95161-5.9516,2.66462-5.9516,5.95161s2.6646,5.95159,5.9516,5.95159Z" fill="none" stroke="#2b98f7" stroke-width="2" stroke-linecap="round" stroke-linejoin="round" stroke-miterlimit="10" stroke-dashoffset="120" stroke-dasharray="120"/><path id="etuBiTW4mKo5" d="M13.9194,29.4515c0-7.4032,5.9516-13.3548,13.3549-13.3548s13.3548,5.9516,13.3548,13.3548" fill="none" stroke="#2b98f7" stroke-width="2" stroke-linecap="round" stroke-linejoin="round" stroke-miterlimit="10" stroke-dashoffset="150" stroke-dasharray="150"/></g><g id="etuBiTW4mKo6_tr" transform="translate(39.248377,25.822402) rotate(0)"><g transform="translate(-40.3389,-25.8224)"><path d="M44.8389,13.3379c2.4852,0,4.5-2.0147,4.5-4.50001s-2.0148-4.5-4.5-4.5c-2.4853,0-4.5,2.01472-4.5,4.5s2.0147,4.50001,4.5,4.50001Z" fill="none" stroke="#10385b" stroke-width="2" stroke-linecap="round" stroke-linejoin="round" stroke-miterlimit="10"/><path d="M40.6292,16.5321c1.3064-.5806,2.758-.871,4.2096-.871c5.6613,0,10.1613,4.5,10.1613,10.1613" fill="none" stroke="#10385b" stroke-width="2" stroke-linecap="round" stroke-linejoin="round" stroke-miterlimit="10"/></g></g><g id="etuBiTW4mKo9_tr" transform="translate(15.822467,25.822401) rotate(0)"><g transform="translate(-15.822467,-25.8224)"><path d="M11.1611,13.3379c2.4853,0,4.5-2.0147,4.5-4.50001s-2.0147-4.5-4.5-4.5-4.49997,2.01472-4.49997,4.5s2.01472,4.50001,4.49997,4.50001Z" fill="none" stroke="#10385b" stroke-width="2" stroke-linecap="round" stroke-linejoin="round" stroke-miterlimit="10"/><path d="M1,25.8224c0-5.6613,4.49999-10.1613,10.1613-10.1613c1.4516,0,2.758.2904,3.9193.7258" fill="none" stroke="#10385b" stroke-width="2" stroke-linecap="round" stroke-linejoin="round" stroke-miterlimit="10"/></g></g></g></svg>