<svg id="ez2YmIpP8cj1" xmlns="http://www.w3.org/2000/svg" xmlns:xlink="http://www.w3.org/1999/xlink" viewBox="0 0 60 60" shape-rendering="geometricPrecision" text-rendering="geometricPrecision"><g transform="translate(.000002 0.000009)"><path d="M11,40.799h7.0627c.7379-.6325,2.3192-1.792,4.7437-2.2137c4.0057-.5271,6.8519,1.792,7.379,2.2137h5.6923c1.265,0,2.3192,1.0541,2.3192,2.3191s-1.0542,2.3191-2.3192,2.3191h-5.6923" fill="none" stroke="#10385b" stroke-width="2" stroke-linecap="round" stroke-linejoin="round" stroke-miterlimit="10"/><path d="M38.4077,42.3804c0,0,4.5328-2.8462,7.4844-4.1111c1.0541-.5271,2.3191,0,2.8462,1.0541.527.9487.2108,2.0029-.5271,2.7408L37.1427,51.6569c-.9487.8433-2.3191,1.2649-3.5841,1.0541L18.9061,50.4973h-7.9061" fill="none" stroke="#10385b" stroke-width="2" stroke-linecap="round" stroke-linejoin="round" stroke-miterlimit="10"/></g><g transform="translate(0 0.000001)"><path d="M44.5564,17.028c0-5.3176-4.6015-9.57161-10.056-8.97141-4.0224.45278-7.3288,3.65381-7.8974,7.65521-.4949,3.5064,1.032,6.697,3.5802,8.5818c1.053.7687,1.8216,1.8638,2.106,3.1379l.0631.2633c.158.7265.8003,1.2319,1.5479,1.2319h3.2853c.7371,0,1.3794-.5159,1.5479-1.2319l.0632-.2633c.2948-1.2846,1.0846-2.3797,2.1376-3.1695c2.2112-1.6426,3.6433-4.2646,3.6433-7.234h-.0211Z" fill="none" stroke="#04bbf2" stroke-width="2" stroke-linecap="round" stroke-linejoin="round" stroke-dasharray="70"/><path d="M37.2277,28.9277h-3.4011c-.7909,0-1.4321.6388-1.4321,1.4268s.6412,1.4268,1.4321,1.4268h3.4011c.7909,0,1.4321-.6388,1.4321-1.4268s-.6412-1.4268-1.4321-1.4268Z" fill="none" stroke="#04bbf2" stroke-width="2" stroke-linecap="round" stroke-linejoin="round" stroke-dasharray="30"/><path d="M36.6799,31.7812h-2.2849c-.7502,0-1.3584.6058-1.3584,1.3531s.6082,1.3531,1.3584,1.3531h2.2849c.7502,0,1.3584-.6058,1.3584-1.3531s-.6082-1.3531-1.3584-1.3531Z" transform="translate(0 0.0001)" fill="none" stroke="#04bbf2" stroke-width="2" stroke-linecap="round" stroke-linejoin="round" stroke-dasharray="30"/></g></svg>