<svg id="eYNhKgQ6mIa1" xmlns="http://www.w3.org/2000/svg" xmlns:xlink="http://www.w3.org/1999/xlink" viewBox="0 0 60 60" shape-rendering="geometricPrecision" text-rendering="geometricPrecision"><g><g transform="translate(-.051051 0.000001)"><path d="M22.2368,26.7312c0-.2043,0-.3064,0-.5107c0-4.2903,3.4731-7.7635,7.7635-7.7635c4.2903,0,7.7634,3.4732,7.7634,7.7635" fill="none" stroke="#04bbf2" stroke-width="2" stroke-linecap="round" stroke-linejoin="round" stroke-miterlimit="10" stroke-dasharray="80"/><path d="M45.3226,26.2205v-3.0646h-3.1667c-.3064-1.2258-.8172-2.3494-1.4301-3.3709l2.2473-2.1452-4.2903-4.2903-2.2473,2.2473c-1.0215-.6129-2.1452-1.1237-3.371-1.4301v-3.1667h-6.0269v3.1667c-1.2258.3064-2.3494.8172-3.371,1.4301l-2.2473-2.2473-4.2903,4.2903l2.2473,2.2473c-.6129,1.0215-1.1236,2.1452-1.4301,3.371h-3.1667v3.7796" fill="none" stroke="#04bbf2" stroke-width="2" stroke-linecap="round" stroke-linejoin="round" stroke-miterlimit="10" stroke-dasharray="80"/></g><g transform="matrix(1 0 0-1-.051051 52.768902)"><path d="M22.2368,26.7312c0-.2043,0-.3064,0-.5107c0-4.2903,3.4731-7.7635,7.7635-7.7635c4.2903,0,7.7634,3.4732,7.7634,7.7635" fill="none" stroke="#04bbf2" stroke-width="2" stroke-linecap="round" stroke-linejoin="round" stroke-miterlimit="10" stroke-dashoffset="80" stroke-dasharray="80"/><path d="M45.3226,26.2205v-3.0646h-3.1667c-.3064-1.2258-.8172-2.3494-1.4301-3.3709l2.2473-2.1452-4.2903-4.2903-2.2473,2.2473c-1.0215-.6129-2.1452-1.1237-3.371-1.4301v-3.1667h-6.0269v3.1667c-1.2258.3064-2.3494.8172-3.371,1.4301l-2.2473-2.2473-4.2903,4.2903l2.2473,2.2473c-.6129,1.0215-1.1236,2.1452-1.4301,3.371h-3.1667v3.7796" fill="none" stroke="#04bbf2" stroke-width="2" stroke-linecap="round" stroke-linejoin="round" stroke-miterlimit="10" stroke-dashoffset="80" stroke-dasharray="80"/></g></g><g transform="translate(.000001 0)"><path d="M29.4894,37.4564c2.3131,0,4.1882-1.8751,4.1882-4.1881c0-2.3131-1.8751-4.1882-4.1882-4.1882s-4.1881,1.8751-4.1881,4.1882c0,2.313,1.8751,4.1881,4.1881,4.1881Z" fill="none" stroke="#10385b" stroke-width="2" stroke-linecap="round" stroke-linejoin="round" stroke-miterlimit="10"/><path d="M20.0913,48.9994c0-5.2097,4.1882-9.3978,9.3979-9.3978s9.3978,4.1881,9.3978,9.3978" fill="none" stroke="#10385b" stroke-width="2" stroke-linecap="round" stroke-linejoin="round" stroke-miterlimit="10"/><g transform="translate(.000001 0)"><path d="M41.8493,37.6615c1.7489,0,3.1667-1.4178,3.1667-3.1667s-1.4178-3.1667-3.1667-3.1667-3.1667,1.4178-3.1667,3.1667s1.4178,3.1667,3.1667,3.1667Z" fill="none" stroke="#10385b" stroke-width="2" stroke-linecap="round" stroke-linejoin="round" stroke-miterlimit="10"/><path d="M38.8867,40.0113c.9194-.4086,1.9409-.6129,2.9624-.6129c3.9839,0,7.1505,3.1667,7.1505,7.1506" fill="none" stroke="#10385b" stroke-width="2" stroke-linecap="round" stroke-linejoin="round" stroke-miterlimit="10"/></g><g><path d="M18.1506,37.6615c1.7489,0,3.1666-1.4178,3.1666-3.1667s-1.4177-3.1667-3.1666-3.1667-3.1667,1.4178-3.1667,3.1667s1.4178,3.1667,3.1667,3.1667Z" fill="none" stroke="#10385b" stroke-width="2" stroke-linecap="round" stroke-linejoin="round" stroke-miterlimit="10"/><path d="M11,46.4455c0-3.9839,3.1667-7.1506,7.1505-7.1506c1.0216,0,1.9409.2043,2.7581.5108" fill="none" stroke="#10385b" stroke-width="2" stroke-linecap="round" stroke-linejoin="round" stroke-miterlimit="10"/></g></g></svg>